# Blender 3.6.5
# www.blender.org
mtllib Coffee Bean.mtl
o Coffee_Bean
v 0.412447 0.000029 -4.016581
v 0.403652 0.000029 -4.014968
v 0.397213 0.000029 -4.010565
v 0.417797 -0.003886 -3.998214
v 0.397213 0.000029 -3.998535
v 0.403652 0.000029 -3.994131
v 0.412447 0.000029 -3.992520
v 0.421243 0.000029 -3.994131
v 0.427682 0.000029 -3.998535
v 0.412447 -0.003886 -3.997234
v 0.427682 0.000029 -4.010565
v 0.421243 0.000029 -4.014968
v 0.403182 -0.003886 -4.000892
v 0.407098 -0.003886 -3.998214
v 0.403182 -0.003886 -4.008208
v 0.412447 -0.003886 -4.011867
v 0.407098 -0.003886 -4.010887
v 0.395129 0.000029 -4.003853
v 0.395129 0.000029 -4.005247
v 0.395016 0.000029 -4.004550
v 0.429766 0.000029 -4.005247
v 0.429766 0.000029 -4.003853
v 0.429879 0.000029 -4.004550
v 0.426182 0.004339 -4.005179
v 0.428162 0.003590 -4.004550
v 0.428060 0.004339 -4.003922
v 0.426182 0.004339 -4.003921
v 0.426182 0.003590 -4.004550
v 0.426182 0.004339 -4.009973
v 0.420377 0.004339 -4.013943
v 0.426182 0.004339 -3.999127
v 0.420377 0.004339 -3.995157
v 0.412447 0.004339 -3.993705
v 0.398713 0.004339 -3.999127
v 0.404518 0.004339 -3.995157
v 0.398713 0.004339 -4.009973
v 0.412447 0.004339 -4.015396
v 0.404518 0.004339 -4.013943
v 0.421713 -0.003886 -4.000892
v 0.417797 -0.003886 -4.010887
v 0.421713 -0.003886 -4.008208
v 0.422980 -0.003886 -4.004126
v 0.423049 -0.003886 -4.004550
v 0.422980 -0.003886 -4.004974
v 0.401846 -0.003886 -4.004550
v 0.401915 -0.003886 -4.004126
v 0.401915 -0.003886 -4.004974
v 0.399001 -0.001928 -3.999241
v 0.397162 -0.001928 -4.003935
v 0.404684 -0.001928 -3.995354
v 0.427733 -0.001928 -4.003935
v 0.425894 -0.001928 -3.999241
v 0.412447 -0.001928 -3.993932
v 0.420211 -0.001928 -3.995354
v 0.397062 -0.001928 -4.004550
v 0.397162 -0.001928 -4.005165
v 0.425894 -0.001928 -4.009859
v 0.427733 -0.001928 -4.005165
v 0.404684 -0.001928 -4.013746
v 0.412447 -0.001928 -4.015169
v 0.427833 -0.001928 -4.004550
v 0.399001 -0.001928 -4.009859
v 0.420211 -0.001928 -4.013746
v 0.403652 0.002181 -4.014968
v 0.412447 0.002181 -4.016581
v 0.397213 0.002181 -4.010565
v 0.403652 0.002181 -3.994131
v 0.397213 0.002181 -3.998535
v 0.412447 0.002181 -3.992520
v 0.421243 0.002181 -3.994131
v 0.427682 0.002181 -3.998535
v 0.421243 0.002181 -4.014968
v 0.427682 0.002181 -4.010565
v 0.429766 0.002181 -4.003853
v 0.429879 0.000921 -4.004550
v 0.429766 0.002181 -4.005247
v 0.395016 0.000921 -4.004550
v 0.395129 0.002181 -4.003853
v 0.395129 0.002181 -4.005247
v 0.428060 0.004339 -4.005178
v 0.398713 0.003590 -4.004550
v 0.398713 0.004339 -4.003921
v 0.404518 0.004339 -4.001985
v 0.404518 0.003590 -4.002614
v 0.398713 0.004339 -4.005179
v 0.404518 0.004339 -4.003244
v 0.412447 0.004339 -4.003920
v 0.412447 0.003590 -4.004550
v 0.412447 0.004339 -4.005180
v 0.420377 0.004339 -4.005860
v 0.420377 0.003590 -4.006490
v 0.420377 0.004339 -4.007120
v 0.396733 0.003590 -4.004550
v 0.396835 0.004339 -4.003922
v 0.396835 0.004339 -4.005178
v 0.407262 -0.004859 -4.004788
v 0.407262 -0.004859 -4.004550
v 0.409454 -0.004859 -4.003819
v 0.407262 -0.004859 -4.004313
v 0.409454 -0.004859 -4.003582
v 0.418342 -0.004859 -4.004787
v 0.417633 -0.004859 -4.004788
v 0.418380 -0.004859 -4.004550
v 0.417633 -0.004859 -4.004550
v 0.418342 -0.004859 -4.004313
v 0.417633 -0.004859 -4.004313
v 0.412447 -0.004859 -4.008645
v 0.415441 -0.004859 -4.008096
v 0.417633 -0.004859 -4.006598
v 0.417633 -0.004859 -4.002503
v 0.415441 -0.004859 -4.001004
v 0.412447 -0.004859 -4.000456
v 0.409454 -0.004859 -4.001004
v 0.407262 -0.004859 -4.002503
v 0.407262 -0.004859 -4.006598
v 0.409454 -0.004859 -4.008096
v 0.409454 -0.004859 -4.004057
v 0.412447 -0.004859 -4.004313
v 0.412447 -0.004859 -4.004550
v 0.412447 -0.004859 -4.004788
v 0.415441 -0.004859 -4.005045
v 0.415441 -0.004859 -4.005283
v 0.415441 -0.004859 -4.005520
v 0.406514 -0.004859 -4.004550
v 0.406553 -0.004859 -4.004313
v 0.406553 -0.004859 -4.004787
v 0.399787 0.005998 -4.007576
v 0.425108 0.005998 -4.007576
v 0.405138 0.005998 -4.008594
v 0.412447 0.005998 -4.010288
v 0.419757 0.005998 -4.010531
v 0.399787 0.005998 -4.001565
v 0.425108 0.005998 -4.001565
v 0.405138 0.005998 -3.998629
v 0.412447 0.005998 -3.998899
v 0.419757 0.005998 -4.000599
vn -0.0319 0.9213 0.3876
vn 0.1568 0.9219 0.3544
vn -0.2338 0.8134 0.5327
vn 0.0514 0.9319 0.3591
vn -0.2574 0.8722 0.4158
vn 0.0608 0.9539 0.2939
vn -0.6143 0.7515 0.2407
vn 0.6143 0.7515 0.2407
vn 0.5645 -0.0000 0.8254
vn 0.9311 -0.0000 -0.3648
vn -0.9871 -0.0000 -0.1602
vn 0.1802 -0.0000 0.9836
vn -0.1802 -0.0000 0.9836
vn 0.9311 -0.0000 0.3648
vn -0.5645 -0.0000 0.8254
vn -0.9311 -0.0000 0.3648
vn 0.1802 -0.0000 -0.9836
vn 0.9871 -0.0000 -0.1602
vn -0.9871 -0.0000 0.1602
vn 0.5645 -0.0000 -0.8254
vn -0.9311 -0.0000 -0.3648
vn -0.5645 -0.0000 -0.8254
vn 0.9871 -0.0000 0.1602
vn -0.1802 -0.0000 -0.9836
vn -0.0529 -0.9559 -0.2889
vn 0.0529 -0.9559 -0.2889
vn -0.1462 -0.9659 -0.2137
vn 0.2018 -0.9762 -0.0791
vn -0.2041 -0.9784 -0.0331
vn -0.1461 -0.9659 0.2137
vn 0.2018 -0.9762 0.0791
vn 0.2041 -0.9784 0.0331
vn -0.0529 -0.9559 0.2889
vn -0.2018 -0.9762 0.0791
vn -0.2041 -0.9784 0.0331
vn 0.0529 -0.9559 0.2889
vn -0.2018 -0.9762 -0.0791
vn 0.1461 -0.9659 0.2137
vn 0.2041 -0.9784 -0.0331
vn 0.1462 -0.9659 -0.2137
vn -0.3717 -0.9169 0.1456
vn -0.2627 -0.8852 0.3841
vn 0.3717 -0.9169 0.1456
vn -0.0930 -0.8565 0.5077
vn 0.0930 -0.8565 0.5077
vn -0.3779 -0.9238 -0.0613
vn 0.3717 -0.9169 -0.1456
vn 0.2627 -0.8852 0.3841
vn -0.0930 -0.8565 -0.5077
vn 0.3779 -0.9238 0.0613
vn -0.2627 -0.8851 -0.3841
vn -0.3717 -0.9169 -0.1456
vn 0.2627 -0.8851 -0.3841
vn -0.3779 -0.9238 0.0613
vn 0.3779 -0.9238 -0.0613
vn 0.0930 -0.8565 -0.5077
vn 0.1470 -0.5787 -0.8022
vn 0.6870 -0.7181 -0.1115
vn -0.6870 -0.7181 0.1115
vn 0.4379 -0.6310 -0.6404
vn -0.6643 -0.7007 -0.2603
vn -0.4379 -0.6310 -0.6404
vn 0.6870 -0.7181 0.1115
vn -0.1470 -0.5787 -0.8022
vn 0.4379 -0.6310 0.6403
vn 0.6643 -0.7007 -0.2603
vn -0.6870 -0.7181 -0.1115
vn 0.1470 -0.5787 0.8022
vn -0.1470 -0.5787 0.8022
vn 0.6643 -0.7007 0.2603
vn -0.4379 -0.6310 0.6403
vn -0.6643 -0.7007 0.2603
vn 0.4800 0.5262 -0.7019
vn -0.7458 0.5986 0.2922
vn 0.6620 0.4610 0.5909
vn -0.6621 0.4609 -0.5909
vn 0.4800 0.5263 0.7019
vn -0.7458 0.5986 -0.2922
vn 0.1586 0.4751 0.8655
vn -0.1586 0.4751 0.8655
vn 0.6621 0.4609 -0.5909
vn -0.4800 0.5263 0.7019
vn 0.7458 0.5986 -0.2922
vn -0.6620 0.4609 0.5910
vn -0.4800 0.5262 -0.7019
vn -0.1586 0.4750 -0.8655
vn 0.1586 0.4750 -0.8655
vn 0.7458 0.5986 0.2922
vn -0.0002 0.8223 0.5691
vn -0.0276 0.9342 0.3556
vn 0.0728 0.9494 0.3055
vn -0.0001 0.6429 -0.7659
vn -0.0001 0.6429 0.7659
vn 0.2474 0.6233 -0.7418
vn -0.2473 0.6233 0.7418
vn -0.1836 0.6326 -0.7524
vn 0.1836 0.6326 0.7524
vn -0.1840 0.6326 -0.7523
vn 0.1840 0.6326 0.7523
vn 0.2478 0.6233 -0.7417
vn -0.2479 0.6232 0.7417
vn 0.0001 0.6429 -0.7659
vn 0.0001 0.6429 0.7659
vn 0.0002 0.8223 0.5691
vn -0.0000 -1.0000 -0.0000
vn -0.0616 0.9524 -0.2985
vn 0.0286 0.9322 -0.3609
vn 0.2609 0.8691 -0.4203
vn -0.1604 0.9196 -0.3587
vn -0.0527 0.9298 -0.3643
vn -0.0741 0.9478 -0.3102
vn 0.2355 0.8085 -0.5393
vn 0.0343 0.9191 -0.3926
vn 0.0002 0.8177 -0.5756
vn -0.6170 0.7489 -0.2418
vn 0.6170 0.7489 -0.2418
vn -0.0002 0.8177 -0.5757
vt 0.000000 0.000000
s 0
f 129/1/1 127/1/1 85/1/1 86/1/1
f 133/1/2 136/1/2 32/1/2 31/1/2
f 128/1/3 131/1/3 92/1/3 24/1/3
f 131/1/4 130/1/4 89/1/4 92/1/4
f 134/1/5 132/1/5 34/1/5 35/1/5
f 136/1/6 135/1/6 33/1/6 32/1/6
f 132/1/7 94/1/7 34/1/7
f 26/1/8 133/1/8 31/1/8
f 9/1/9 71/1/9 70/1/9 8/1/9
f 11/1/10 73/1/10 76/1/10 21/1/10
f 20/1/11 77/1/11 79/1/11 19/1/11
f 8/1/12 70/1/12 69/1/12 7/1/12
f 7/1/13 69/1/13 67/1/13 6/1/13
f 22/1/14 74/1/14 71/1/14 9/1/14
f 6/1/15 67/1/15 68/1/15 5/1/15
f 5/1/16 68/1/16 78/1/16 18/1/16
f 1/1/17 65/1/17 72/1/17 12/1/17
f 21/1/18 76/1/18 75/1/18 23/1/18
f 18/1/19 78/1/19 77/1/19 20/1/19
f 12/1/20 72/1/20 73/1/20 11/1/20
f 19/1/21 79/1/21 66/1/21 3/1/21
f 3/1/22 66/1/22 64/1/22 2/1/22
f 23/1/23 75/1/23 74/1/23 22/1/23
f 2/1/24 64/1/24 65/1/24 1/1/24
f 16/1/25 107/1/25 116/1/25 17/1/25
f 40/1/26 108/1/26 107/1/26 16/1/26
f 17/1/27 116/1/27 115/1/27 15/1/27
f 44/1/28 101/1/28 109/1/28 41/1/28
f 47/1/29 126/1/29 124/1/29 45/1/29
f 13/1/30 114/1/30 113/1/30 14/1/30
f 39/1/31 110/1/31 105/1/31 42/1/31
f 42/1/32 105/1/32 103/1/32 43/1/32
f 14/1/33 113/1/33 112/1/33 10/1/33
f 46/1/34 125/1/34 114/1/34 13/1/34
f 45/1/35 124/1/35 125/1/35 46/1/35
f 10/1/36 112/1/36 111/1/36 4/1/36
f 15/1/37 115/1/37 126/1/37 47/1/37
f 4/1/38 111/1/38 110/1/38 39/1/38
f 43/1/39 103/1/39 101/1/39 44/1/39
f 41/1/40 109/1/40 108/1/40 40/1/40
f 49/1/41 46/1/41 13/1/41 48/1/41
f 48/1/42 13/1/42 14/1/42 50/1/42
f 52/1/43 39/1/43 42/1/43 51/1/43
f 50/1/44 14/1/44 10/1/44 53/1/44
f 53/1/45 10/1/45 4/1/45 54/1/45
f 56/1/46 47/1/46 45/1/46 55/1/46
f 58/1/47 44/1/47 41/1/47 57/1/47
f 54/1/48 4/1/48 39/1/48 52/1/48
f 60/1/49 16/1/49 17/1/49 59/1/49
f 51/1/50 42/1/50 43/1/50 61/1/50
f 59/1/51 17/1/51 15/1/51 62/1/51
f 62/1/52 15/1/52 47/1/52 56/1/52
f 57/1/53 41/1/53 40/1/53 63/1/53
f 55/1/54 45/1/54 46/1/54 49/1/54
f 61/1/55 43/1/55 44/1/55 58/1/55
f 63/1/56 40/1/56 16/1/56 60/1/56
f 12/1/57 63/1/57 60/1/57 1/1/57
f 23/1/58 61/1/58 58/1/58 21/1/58
f 20/1/59 55/1/59 49/1/59 18/1/59
f 11/1/60 57/1/60 63/1/60 12/1/60
f 3/1/61 62/1/61 56/1/61 19/1/61
f 2/1/62 59/1/62 62/1/62 3/1/62
f 22/1/63 51/1/63 61/1/63 23/1/63
f 1/1/64 60/1/64 59/1/64 2/1/64
f 8/1/65 54/1/65 52/1/65 9/1/65
f 21/1/66 58/1/66 57/1/66 11/1/66
f 19/1/67 56/1/67 55/1/67 20/1/67
f 7/1/68 53/1/68 54/1/68 8/1/68
f 6/1/69 50/1/69 53/1/69 7/1/69
f 9/1/70 52/1/70 51/1/70 22/1/70
f 5/1/71 48/1/71 50/1/71 6/1/71
f 18/1/72 49/1/72 48/1/72 5/1/72
f 72/1/73 30/1/73 29/1/73 73/1/73
f 68/1/74 34/1/74 94/1/74 78/1/74
f 76/1/75 80/1/75 25/1/75 75/1/75
f 78/1/76 94/1/76 93/1/76 77/1/76
f 71/1/77 31/1/77 32/1/77 70/1/77
f 79/1/78 95/1/78 36/1/78 66/1/78
f 70/1/79 32/1/79 33/1/79 69/1/79
f 69/1/80 33/1/80 35/1/80 67/1/80
f 75/1/81 25/1/81 26/1/81 74/1/81
f 67/1/82 35/1/82 34/1/82 68/1/82
f 73/1/83 29/1/83 80/1/83 76/1/83
f 77/1/84 93/1/84 95/1/84 79/1/84
f 66/1/85 36/1/85 38/1/85 64/1/85
f 64/1/86 38/1/86 37/1/86 65/1/86
f 65/1/87 37/1/87 30/1/87 72/1/87
f 74/1/88 26/1/88 31/1/88 71/1/88
f 80/1/89 128/1/89 24/1/89
f 135/1/90 134/1/90 35/1/90 33/1/90
f 130/1/91 129/1/91 86/1/91 89/1/91
f 27/1/92 26/1/92 25/1/92 28/1/92
f 28/1/93 25/1/93 80/1/93 24/1/93
f 82/1/94 83/1/94 84/1/94 81/1/94
f 81/1/95 84/1/95 86/1/95 85/1/95
f 83/1/96 87/1/96 88/1/96 84/1/96
f 84/1/97 88/1/97 89/1/97 86/1/97
f 87/1/98 90/1/98 91/1/98 88/1/98
f 88/1/99 91/1/99 92/1/99 89/1/99
f 90/1/100 27/1/100 28/1/100 91/1/100
f 91/1/101 28/1/101 24/1/101 92/1/101
f 94/1/102 82/1/102 81/1/102 93/1/102
f 93/1/103 81/1/103 85/1/103 95/1/103
f 127/1/104 95/1/104 85/1/104
f 105/1/105 110/1/105 106/1/105
f 99/1/105 114/1/105 125/1/105
f 121/1/105 111/1/105 112/1/105 118/1/105
f 100/1/105 113/1/105 114/1/105 99/1/105
f 108/1/105 123/1/105 120/1/105 107/1/105
f 109/1/105 102/1/105 123/1/105 108/1/105
f 106/1/105 110/1/105 111/1/105 121/1/105
f 116/1/105 117/1/105 96/1/105 115/1/105
f 101/1/105 102/1/105 109/1/105
f 118/1/105 112/1/105 113/1/105 100/1/105
f 107/1/105 120/1/105 117/1/105 116/1/105
f 106/1/105 104/1/105 103/1/105 105/1/105
f 104/1/105 102/1/105 101/1/105 103/1/105
f 99/1/105 97/1/105 98/1/105 100/1/105
f 97/1/105 96/1/105 117/1/105 98/1/105
f 100/1/105 98/1/105 119/1/105 118/1/105
f 98/1/105 117/1/105 120/1/105 119/1/105
f 118/1/105 119/1/105 122/1/105 121/1/105
f 119/1/105 120/1/105 123/1/105 122/1/105
f 121/1/105 122/1/105 104/1/105 106/1/105
f 122/1/105 123/1/105 102/1/105 104/1/105
f 125/1/105 124/1/105 97/1/105 99/1/105
f 124/1/105 126/1/105 96/1/105 97/1/105
f 115/1/105 96/1/105 126/1/105
f 37/1/106 38/1/106 129/1/106 130/1/106
f 30/1/107 37/1/107 130/1/107 131/1/107
f 29/1/108 30/1/108 131/1/108 128/1/108
f 38/1/109 36/1/109 127/1/109 129/1/109
f 87/1/110 83/1/110 134/1/110 135/1/110
f 90/1/111 87/1/111 135/1/111 136/1/111
f 83/1/112 82/1/112 132/1/112 134/1/112
f 27/1/113 90/1/113 136/1/113 133/1/113
f 82/1/114 94/1/114 132/1/114
f 36/1/115 95/1/115 127/1/115
f 29/1/116 128/1/116 80/1/116
f 27/1/117 133/1/117 26/1/117
