# Blender 3.6.5
# www.blender.org
mtllib Iced Coffee Glass.mtl
o Iced_Coffee_Glass
v -0.121230 -0.024712 -1.686439
v -0.121230 -0.012836 -1.673718
v -0.097288 -0.024712 -1.682830
v -0.101037 -0.012836 -1.670675
v -0.075474 -0.024712 -1.672325
v -0.082639 -0.012836 -1.661815
v -0.057725 -0.024712 -1.655856
v -0.067670 -0.012836 -1.647925
v -0.045619 -0.024712 -1.634888
v -0.057460 -0.012836 -1.630241
v -0.040231 -0.024712 -1.611283
v -0.052916 -0.012836 -1.610333
v -0.042041 -0.024712 -1.587139
v -0.054442 -0.012836 -1.589969
v -0.050886 -0.024712 -1.564600
v -0.061902 -0.012836 -1.570961
v -0.065982 -0.024712 -1.545671
v -0.074634 -0.012836 -1.554995
v -0.085987 -0.024712 -1.532032
v -0.091506 -0.012836 -1.543492
v -0.109124 -0.024712 -1.524895
v -0.111019 -0.012836 -1.537473
v -0.133336 -0.024712 -1.524895
v -0.131440 -0.012836 -1.537473
v -0.156472 -0.024712 -1.532032
v -0.150953 -0.012836 -1.543492
v -0.176477 -0.024712 -1.545671
v -0.167825 -0.012836 -1.554995
v -0.191573 -0.024712 -1.564600
v -0.180557 -0.012836 -1.570961
v -0.200419 -0.024712 -1.587139
v -0.188017 -0.012836 -1.589969
v -0.202228 -0.024712 -1.611283
v -0.189543 -0.012836 -1.610333
v -0.196840 -0.024712 -1.634888
v -0.184999 -0.012836 -1.630241
v -0.184734 -0.024712 -1.655856
v -0.174789 -0.012836 -1.647925
v -0.166986 -0.024712 -1.672325
v -0.159820 -0.012836 -1.661815
v -0.145171 -0.024712 -1.682830
v -0.141422 -0.012836 -1.670675
v -0.086555 0.343932 -1.717626
v -0.121230 0.343932 -1.722852
v -0.054961 0.343932 -1.702411
v -0.029256 0.343932 -1.678560
v -0.011722 0.343932 -1.648192
v -0.003919 0.343932 -1.614004
v -0.006540 0.343932 -1.579036
v -0.019351 0.343932 -1.546394
v -0.041215 0.343932 -1.518978
v -0.070188 0.343932 -1.499224
v -0.103696 0.343932 -1.488888
v -0.138763 0.343932 -1.488888
v -0.172271 0.343932 -1.499224
v -0.201245 0.343932 -1.518978
v -0.223108 0.343932 -1.546394
v -0.235919 0.343932 -1.579036
v -0.238540 0.343932 -1.614004
v -0.230737 0.343932 -1.648192
v -0.213204 0.343932 -1.678560
v -0.187498 0.343932 -1.702411
v -0.155904 0.343932 -1.717626
v -0.090834 0.343932 -1.703754
v -0.121230 0.343932 -1.708335
v -0.063139 0.343932 -1.690417
v -0.040606 0.343932 -1.669509
v -0.025236 0.343932 -1.642888
v -0.018396 0.343932 -1.612919
v -0.020693 0.343932 -1.582266
v -0.031923 0.343932 -1.553652
v -0.051089 0.343932 -1.529619
v -0.076487 0.343932 -1.512303
v -0.105860 0.343932 -1.503243
v -0.136599 0.343932 -1.503243
v -0.165973 0.343932 -1.512303
v -0.191370 0.343932 -1.529619
v -0.210536 0.343932 -1.553652
v -0.221766 0.343932 -1.582266
v -0.224063 0.343932 -1.612919
v -0.217223 0.343932 -1.642888
v -0.201854 0.343932 -1.669509
v -0.179320 0.343932 -1.690417
v -0.151625 0.343932 -1.703754
v -0.121230 0.349444 -1.715594
v -0.088694 0.349444 -1.710690
v -0.059050 0.349444 -1.696414
v -0.034931 0.349444 -1.674034
v -0.018479 0.349444 -1.645540
v -0.011158 0.349444 -1.613462
v -0.013616 0.349444 -1.580651
v -0.025637 0.349444 -1.550023
v -0.046152 0.349444 -1.524298
v -0.073337 0.349444 -1.505764
v -0.104778 0.349444 -1.496065
v -0.137681 0.349444 -1.496065
v -0.169122 0.349444 -1.505764
v -0.196307 0.349444 -1.524298
v -0.216822 0.349444 -1.550023
v -0.228843 0.349444 -1.580651
v -0.231302 0.349444 -1.613462
v -0.223980 0.349444 -1.645540
v -0.207529 0.349444 -1.674034
v -0.183409 0.349444 -1.696414
v -0.153765 0.349444 -1.710690
vn 0.1483 -0.0972 -0.9841
vn 0.4318 -0.0972 -0.8967
vn 0.6770 -0.0972 -0.7296
vn 0.8619 -0.0972 -0.4976
vn 0.9703 -0.0972 -0.2215
vn 0.9925 -0.0972 0.0744
vn 0.9265 -0.0972 0.3636
vn 0.7781 -0.0972 0.6205
vn 0.5607 -0.0972 0.8223
vn 0.2934 -0.0972 0.9510
vn -0.0000 -0.0972 0.9953
vn -0.2934 -0.0972 0.9510
vn -0.5607 -0.0972 0.8223
vn -0.7781 -0.0972 0.6205
vn -0.9265 -0.0972 0.3636
vn -0.9925 -0.0972 0.0744
vn -0.9703 -0.0972 -0.2215
vn -0.8619 -0.0972 -0.4976
vn -0.6770 -0.0972 -0.7296
vn -0.0000 1.0000 -0.0000
vn -0.4318 -0.0972 -0.8967
vn -0.1483 -0.0972 -0.9841
vn -0.0000 -1.0000 -0.0000
vn 0.0908 0.7931 -0.6023
vn 0.2643 0.7931 -0.5488
vn 0.4143 0.7931 -0.4465
vn 0.5275 0.7931 -0.3046
vn 0.5939 0.7931 -0.1355
vn 0.6074 0.7931 0.0455
vn 0.5670 0.7931 0.2225
vn 0.4762 0.7931 0.3798
vn 0.3431 0.7931 0.5033
vn 0.1795 0.7931 0.5821
vn -0.0000 0.7931 0.6091
vn -0.1795 0.7931 0.5821
vn -0.3431 0.7931 0.5033
vn -0.4762 0.7931 0.3798
vn -0.5670 0.7931 0.2225
vn -0.6074 0.7931 0.0455
vn -0.5939 0.7931 -0.1355
vn -0.5275 0.7931 -0.3046
vn -0.4143 0.7931 -0.4465
vn -0.2643 0.7931 -0.5488
vn -0.0908 0.7931 -0.6023
vn -0.1484 0.0955 0.9843
vn -0.4319 0.0955 0.8969
vn -0.6771 0.0955 0.7297
vn -0.8621 0.0955 0.4977
vn -0.9705 0.0955 0.2215
vn -0.9926 0.0955 -0.0744
vn -0.9266 0.0955 -0.3637
vn -0.7783 0.0955 -0.6206
vn -0.5607 0.0955 -0.8225
vn -0.2934 0.0955 -0.9512
vn -0.0000 0.0955 -0.9954
vn 0.2934 0.0955 -0.9512
vn 0.5607 0.0955 -0.8225
vn 0.7783 0.0955 -0.6206
vn 0.9266 0.0955 -0.3637
vn 0.9926 0.0955 -0.0744
vn 0.9705 0.0955 0.2215
vn 0.8621 0.0955 0.4977
vn 0.6771 0.0955 0.7297
vn 0.4319 0.0955 0.8969
vn 0.1484 0.0955 0.9843
vn 0.0908 0.7931 0.6023
vn 0.2643 0.7931 0.5488
vn 0.4143 0.7931 0.4465
vn 0.5275 0.7931 0.3046
vn 0.5939 0.7931 0.1355
vn 0.6074 0.7931 -0.0455
vn 0.5670 0.7931 -0.2225
vn 0.4762 0.7931 -0.3798
vn 0.3431 0.7931 -0.5033
vn 0.1795 0.7931 -0.5821
vn -0.0000 0.7931 -0.6091
vn -0.1795 0.7931 -0.5821
vn -0.3431 0.7931 -0.5033
vn -0.4762 0.7931 -0.3798
vn -0.5670 0.7931 -0.2225
vn -0.6074 0.7931 -0.0455
vn -0.5939 0.7931 0.1355
vn -0.5275 0.7931 0.3046
vn -0.4143 0.7931 0.4465
vn -0.2643 0.7931 0.5488
vn -0.0908 0.7931 0.6023
vt 1.000000 0.500000
vt 1.000000 1.000000
vt 0.952381 1.000000
vt 0.952381 0.500000
vt 0.904762 1.000000
vt 0.904762 0.500000
vt 0.857143 1.000000
vt 0.857143 0.500000
vt 0.809524 1.000000
vt 0.809524 0.500000
vt 0.761905 1.000000
vt 0.761905 0.500000
vt 0.714286 1.000000
vt 0.714286 0.500000
vt 0.666667 1.000000
vt 0.666667 0.500000
vt 0.619048 1.000000
vt 0.619048 0.500000
vt 0.571429 1.000000
vt 0.571429 0.500000
vt 0.523810 1.000000
vt 0.523810 0.500000
vt 0.476191 1.000000
vt 0.476191 0.500000
vt 0.428571 1.000000
vt 0.428571 0.500000
vt 0.380952 1.000000
vt 0.380952 0.500000
vt 0.333333 1.000000
vt 0.333333 0.500000
vt 0.285714 1.000000
vt 0.285714 0.500000
vt 0.238095 1.000000
vt 0.238095 0.500000
vt 0.190476 1.000000
vt 0.190476 0.500000
vt 0.142857 1.000000
vt 0.142857 0.500000
vt 0.095238 1.000000
vt 0.095238 0.500000
vt 0.312012 0.451036
vt 0.250000 0.460383
vt 0.187989 0.451036
vt 0.131487 0.423827
vt 0.085516 0.381172
vt 0.054160 0.326862
vt 0.040205 0.265722
vt 0.044892 0.203185
vt 0.067803 0.144808
vt 0.106903 0.095778
vt 0.158718 0.060451
vt 0.218644 0.041967
vt 0.281356 0.041967
vt 0.341282 0.060451
vt 0.393097 0.095778
vt 0.432197 0.144808
vt 0.455108 0.203185
vt 0.459795 0.265722
vt 0.445840 0.326862
vt 0.414484 0.381172
vt 0.368513 0.423827
vt 0.047619 1.000000
vt 0.047619 0.500000
vt 0.000000 1.000000
vt 0.000000 0.500000
vt 0.750000 0.490000
vt 0.820741 0.479337
vt 0.885197 0.448297
vt 0.937640 0.399638
vt 0.973410 0.337682
vt 0.989329 0.267935
vt 0.983983 0.196595
vt 0.957846 0.130000
vt 0.913242 0.074068
vt 0.854132 0.033767
vt 0.785770 0.012681
vt 0.714230 0.012681
vt 0.645868 0.033767
vt 0.586758 0.074068
vt 0.542154 0.130000
vt 0.516017 0.196595
vt 0.510671 0.267935
vt 0.526590 0.337682
vt 0.562360 0.399638
vt 0.614803 0.448297
vt 0.679259 0.479337
vt 0.250000 0.475192
vt 0.316376 0.465187
vt 0.320741 0.479337
vt 0.250000 0.490000
vt 0.376855 0.436062
vt 0.385197 0.448297
vt 0.426062 0.390405
vt 0.437640 0.399638
vt 0.459625 0.332272
vt 0.473410 0.337682
vt 0.474562 0.266829
vt 0.489329 0.267935
vt 0.469546 0.199890
vt 0.483983 0.196595
vt 0.445022 0.137404
vt 0.457846 0.130000
vt 0.403169 0.084923
vt 0.413241 0.074068
vt 0.347707 0.047109
vt 0.354132 0.033767
vt 0.283563 0.027324
vt 0.285770 0.012681
vt 0.216437 0.027324
vt 0.214230 0.012681
vt 0.152293 0.047109
vt 0.145868 0.033767
vt 0.096831 0.084923
vt 0.086759 0.074068
vt 0.054978 0.137404
vt 0.042154 0.130000
vt 0.030454 0.199890
vt 0.016017 0.196595
vt 0.025438 0.266829
vt 0.010671 0.267935
vt 0.040375 0.332272
vt 0.026590 0.337682
vt 0.073938 0.390405
vt 0.062360 0.399638
vt 0.123145 0.436062
vt 0.114803 0.448297
vt 0.183624 0.465187
vt 0.179259 0.479337
s 0
f 1/1/1 44/2/1 43/3/1 3/4/1
f 3/4/2 43/3/2 45/5/2 5/6/2
f 5/6/3 45/5/3 46/7/3 7/8/3
f 7/8/4 46/7/4 47/9/4 9/10/4
f 9/10/5 47/9/5 48/11/5 11/12/5
f 11/12/6 48/11/6 49/13/6 13/14/6
f 13/14/7 49/13/7 50/15/7 15/16/7
f 15/16/8 50/15/8 51/17/8 17/18/8
f 17/18/9 51/17/9 52/19/9 19/20/9
f 19/20/10 52/19/10 53/21/10 21/22/10
f 21/22/11 53/21/11 54/23/11 23/24/11
f 23/24/12 54/23/12 55/25/12 25/26/12
f 25/26/13 55/25/13 56/27/13 27/28/13
f 27/28/14 56/27/14 57/29/14 29/30/14
f 29/30/15 57/29/15 58/31/15 31/32/15
f 31/32/16 58/31/16 59/33/16 33/34/16
f 33/34/17 59/33/17 60/35/17 35/36/17
f 35/36/18 60/35/18 61/37/18 37/38/18
f 37/38/19 61/37/19 62/39/19 39/40/19
f 4/41/20 2/42/20 42/43/20 40/44/20 38/45/20 36/46/20 34/47/20 32/48/20 30/49/20 28/50/20 26/51/20 24/52/20 22/53/20 20/54/20 18/55/20 16/56/20 14/57/20 12/58/20 10/59/20 8/60/20 6/61/20
f 39/40/21 62/39/21 63/62/21 41/63/21
f 41/63/22 63/62/22 44/64/22 1/65/22
f 1/66/23 3/67/23 5/68/23 7/69/23 9/70/23 11/71/23 13/72/23 15/73/23 17/74/23 19/75/23 21/76/23 23/77/23 25/78/23 27/79/23 29/80/23 31/81/23 33/82/23 35/83/23 37/84/23 39/85/23 41/86/23
f 85/87/24 86/88/24 43/89/24 44/90/24
f 86/88/25 87/91/25 45/92/25 43/89/25
f 87/91/26 88/93/26 46/94/26 45/92/26
f 88/93/27 89/95/27 47/96/27 46/94/27
f 89/95/28 90/97/28 48/98/28 47/96/28
f 90/97/29 91/99/29 49/100/29 48/98/29
f 91/99/30 92/101/30 50/102/30 49/100/30
f 92/101/31 93/103/31 51/104/31 50/102/31
f 93/103/32 94/105/32 52/106/32 51/104/32
f 94/105/33 95/107/33 53/108/33 52/106/33
f 95/107/34 96/109/34 54/110/34 53/108/34
f 96/109/35 97/111/35 55/112/35 54/110/35
f 97/111/36 98/113/36 56/114/36 55/112/36
f 98/113/37 99/115/37 57/116/37 56/114/37
f 99/115/38 100/117/38 58/118/38 57/116/38
f 100/117/39 101/119/39 59/120/39 58/118/39
f 101/119/40 102/121/40 60/122/40 59/120/40
f 102/121/41 103/123/41 61/124/41 60/122/41
f 103/123/42 104/125/42 62/126/42 61/124/42
f 104/125/43 105/127/43 63/128/43 62/126/43
f 105/127/44 85/87/44 44/90/44 63/128/44
f 2/42/45 4/41/45 64/41/45 65/42/45
f 4/41/46 6/61/46 66/61/46 64/41/46
f 6/61/47 8/60/47 67/60/47 66/61/47
f 8/60/48 10/59/48 68/59/48 67/60/48
f 10/59/49 12/58/49 69/58/49 68/59/49
f 12/58/50 14/57/50 70/57/50 69/58/50
f 14/57/51 16/56/51 71/56/51 70/57/51
f 16/56/52 18/55/52 72/55/52 71/56/52
f 18/55/53 20/54/53 73/54/53 72/55/53
f 20/54/54 22/53/54 74/53/54 73/54/54
f 22/53/55 24/52/55 75/52/55 74/53/55
f 24/52/56 26/51/56 76/51/56 75/52/56
f 26/51/57 28/50/57 77/50/57 76/51/57
f 28/50/58 30/49/58 78/49/58 77/50/58
f 30/49/59 32/48/59 79/48/59 78/49/59
f 32/48/60 34/47/60 80/47/60 79/48/60
f 34/47/61 36/46/61 81/46/61 80/47/61
f 36/46/62 38/45/62 82/45/62 81/46/62
f 38/45/63 40/44/63 83/44/63 82/45/63
f 40/44/64 42/43/64 84/43/64 83/44/64
f 42/43/65 2/42/65 65/42/65 84/43/65
f 84/43/66 65/42/66 85/87/66 105/127/66
f 83/44/67 84/43/67 105/127/67 104/125/67
f 82/45/68 83/44/68 104/125/68 103/123/68
f 81/46/69 82/45/69 103/123/69 102/121/69
f 80/47/70 81/46/70 102/121/70 101/119/70
f 79/48/71 80/47/71 101/119/71 100/117/71
f 78/49/72 79/48/72 100/117/72 99/115/72
f 77/50/73 78/49/73 99/115/73 98/113/73
f 76/51/74 77/50/74 98/113/74 97/111/74
f 75/52/75 76/51/75 97/111/75 96/109/75
f 74/53/76 75/52/76 96/109/76 95/107/76
f 73/54/77 74/53/77 95/107/77 94/105/77
f 72/55/78 73/54/78 94/105/78 93/103/78
f 71/56/79 72/55/79 93/103/79 92/101/79
f 70/57/80 71/56/80 92/101/80 91/99/80
f 69/58/81 70/57/81 91/99/81 90/97/81
f 68/59/82 69/58/82 90/97/82 89/95/82
f 67/60/83 68/59/83 89/95/83 88/93/83
f 66/61/84 67/60/84 88/93/84 87/91/84
f 64/41/85 66/61/85 87/91/85 86/88/85
f 65/42/86 64/41/86 86/88/86 85/87/86
